<?xml version="1.0" encoding="utf-8"?><!DOCTYPE svg PUBLIC "-//W3C//DTD SVG 1.1//EN" "http://www.w3.org/Graphics/SVG/1.1/DTD/svg11.dtd"><svg viewBox="0 0 309.27 309.27" xmlns="http://www.w3.org/2000/svg" xmlns:xlink="http://www.w3.org/1999/xlink"><style>:root>svg{display:none}:root>svg:target{display:block}</style><svg viewBox="0 0 24 24" id="codepen_color" xmlns="http://www.w3.org/2000/svg"><path d="M2.893 15.656l8.076 5.384v-4.808l-4.474-2.986zm-.831-1.928L4.647 12l-2.585-1.728zm10.969 7.312l8.076-5.384-3.6-2.41-4.476 2.986zM12 14.438L15.643 12 12 9.562 8.357 12zm-5.505-3.68l4.474-2.99V2.96L2.893 8.344zM19.353 12l2.585 1.728v-3.456zm-1.848-1.246l3.6-2.41-8.074-5.384v4.808zM24 8.344V15.686c0 .346-.18.651-.452.825l-.004.002-10.969 7.313a1.039 1.039 0 01-1.156-.002l.004.002L.454 16.514a.979.979 0 01-.456-.827l.001-.032v.002-7.312-.031c0-.346.18-.651.452-.825l.004-.002L11.424.175a1.039 1.039 0 011.156.002l-.004-.002 10.969 7.312a.979.979 0 01.456.827L24 8.346z"/></svg><svg viewBox="0 0 291.32 291.32" id="git_color" xmlns="http://www.w3.org/2000/svg"><path d="M145.66 0C65.219 0 0 65.219 0 145.66c0 80.45 65.219 145.66 145.66 145.66s145.66-65.21 145.66-145.66C291.319 65.219 226.1 0 145.66 0zm40.802 256.625c-.838-11.398-1.775-25.518-1.83-31.235-.364-4.388-.838-15.549-11.434-22.677 42.068-3.523 62.087-26.774 63.526-57.499 1.202-17.497-5.754-32.883-18.107-45.3.628-13.282-.401-29.023-1.256-35.941-9.486-2.731-31.608 8.949-37.79 13.947-13.037-5.062-44.945-6.837-64.336 0-13.747-9.668-29.396-15.64-37.926-13.974-7.875 17.452-2.813 33.948-1.275 35.914-10.142 9.268-24.289 20.675-20.447 44.572 6.163 35.04 30.816 53.94 70.508 58.564-8.466 1.73-9.896 8.048-10.606 10.788-26.656 10.997-34.275-6.791-37.644-11.425-11.188-13.847-21.23-9.832-21.849-9.614-.601.218-1.056 1.092-.992 1.511.564 2.986 6.655 6.018 6.955 6.263 8.257 6.154 11.316 17.27 13.2 20.438 11.844 19.473 39.374 11.398 39.638 11.562.018 1.702-.191 16.032-.355 27.184C64.245 245.992 27.311 200.2 27.311 145.66c0-65.365 52.984-118.348 118.348-118.348S264.008 80.295 264.008 145.66c0 51.008-32.318 94.332-77.546 110.965z" fill="#2b414d"/></svg><svg viewBox="0 0 70 70" id="hh_color" xmlns="http://www.w3.org/2000/svg"><g fill="none" fill-rule="evenodd"><circle fill="#E1011C" cx="35" cy="35" r="35"/><path d="M19.557 18.505V30.41c1.812-2.16 3.985-3.25 6.505-3.25 1.298 0 2.46.248 3.503.74 1.046.49 1.828 1.117 2.355 1.877.53.77.89 1.61 1.083 2.538.193.923.29 2.36.29 4.307v12.73H27.66V37.89c0-2.276-.102-3.717-.316-4.33a2.804 2.804 0 00-1.13-1.457c-.543-.365-1.22-.546-2.034-.546-.932 0-1.77.234-2.498.697-.742.467-1.278 1.165-1.615 2.097-.345.933-.516 2.31-.51 4.135l-.006 10.87h-5.624v-30.85h5.63M41.734 18.505V30.41c1.813-2.16 3.984-3.25 6.504-3.25 1.293 0 2.463.248 3.508.74 1.04.49 1.823 1.117 2.35 1.877.53.77.89 1.61 1.082 2.538.193.923.29 2.36.29 4.307v12.73H49.84V37.89c0-2.276-.104-3.717-.32-4.33a2.798 2.798 0 00-1.132-1.457c-.537-.365-1.218-.546-2.033-.546-.932 0-1.77.234-2.498.697-.734.467-1.27 1.165-1.614 2.097-.338.933-.51 2.31-.51 4.135v10.87H36.11v-30.85h5.626" fill="#fff"/></g></svg><svg viewBox="0 0 309.267 309.267" id="mail_color" xmlns="http://www.w3.org/2000/svg"><path d="M28.994 256.112h251.279c16.014 0 28.994-12.989 28.994-28.994V82.149c0-16.014-12.98-28.994-28.994-28.994H28.994C12.989 53.155 0 66.135 0 82.149v144.969c0 16.005 12.989 28.994 28.994 28.994z" fill="#f4b459"/><path d="M9.723 248.622l120.943-93.07L9.984 60.413C3.914 65.729 0 73.441 0 82.149v144.969c0 8.572 3.798 16.198 9.723 21.504zM299.486 60.578l-125.417 95.245 125.301 92.944c6.031-5.306 9.897-12.999 9.897-21.649V82.149c0-8.611-3.827-16.256-9.781-21.571z" fill="#e8ab54"/><path d="M305.44 241.257L199.825 156.75l106.881-86.44a29.02 29.02 0 00-11.105-12.69L159.079 166.83 18.865 55.069c-5.644 2.117-10.486 5.866-13.83 10.776l112.892 90.548L6.495 245.181c3.798 4.716 8.978 8.196 14.99 9.819l110.399-87.32 6.736 5.432c11.308 11.646 29.641 11.646 40.959 0l6.272-5.074 107.267 84.942a28.905 28.905 0 0012.322-11.723z" fill="#fadaac"/></svg><svg viewBox="0 0 56 56" id="pdf_color" xmlns="http://www.w3.org/2000/svg"><path d="M36.985 0H7.963C7.155 0 6.5.655 6.5 1.926V55c0 .345.655 1 1.463 1h40.074c.808 0 1.463-.655 1.463-1V12.978c0-.696-.093-.92-.257-1.085L37.607.257A.884.884 0 0036.985 0z" fill="#e9e9e0"/><path fill="#d9d7ca" d="M37.5.151V12h11.849z"/><path d="M19.514 33.324c-.348 0-.682-.113-.967-.326-1.041-.781-1.181-1.65-1.115-2.242.182-1.628 2.195-3.332 5.985-5.068 1.504-3.296 2.935-7.357 3.788-10.75-.998-2.172-1.968-4.99-1.261-6.643.248-.579.557-1.023 1.134-1.215a4.91 4.91 0 011.016-.172c.504 0 .947.649 1.261 1.049.295.376.964 1.173-.373 6.802 1.348 2.784 3.258 5.62 5.088 7.562 1.311-.237 2.439-.358 3.358-.358 1.566 0 2.515.365 2.902 1.117.32.622.189 1.349-.39 2.16-.557.779-1.325 1.191-2.22 1.191-1.216 0-2.632-.768-4.211-2.285-2.837.593-6.15 1.651-8.828 2.822-.836 1.774-1.637 3.203-2.383 4.251-1.025 1.435-1.909 2.105-2.784 2.105zm2.662-5.126c-2.137 1.201-3.008 2.188-3.071 2.744-.01.092-.037.334.431.692.149-.047 1.019-.444 2.64-3.436zm13.637-4.442c.815.627 1.014.944 1.547.944.234 0 .901-.01 1.21-.441.149-.209.207-.343.23-.415-.123-.065-.286-.197-1.175-.197-.505.001-1.14.023-1.812.109zm-7.47-6.582a71.291 71.291 0 01-2.674 7.564 49.966 49.966 0 016.496-2.02c-1.35-1.568-2.699-3.526-3.822-5.544zm-.607-8.462c-.098.033-1.33 1.757.096 3.216.949-2.115-.053-3.23-.096-3.216zM48.037 56H7.963A1.463 1.463 0 016.5 54.537V39h43v15.537c0 .808-.655 1.463-1.463 1.463z" fill="#cc4b4c"/><g fill="#fff"><path d="M17.385 53h-1.641V42.924h2.898c.428 0 .852.068 1.271.205.419.137.795.342 1.128.615.333.273.602.604.807.991s.308.822.308 1.306c0 .511-.087.973-.26 1.388a2.9 2.9 0 01-.725 1.046c-.31.282-.684.501-1.121.656s-.921.232-1.449.232h-1.217V53zm0-8.832v3.992h1.504c.2 0 .398-.034.595-.103.196-.068.376-.18.54-.335.164-.155.296-.371.396-.649.1-.278.15-.622.15-1.032 0-.164-.023-.354-.068-.567a1.637 1.637 0 00-.28-.615 1.657 1.657 0 00-.595-.492c-.255-.132-.593-.198-1.012-.198h-1.23zM32.219 47.682c0 .829-.089 1.538-.267 2.126s-.403 1.08-.677 1.477-.581.709-.923.937-.672.398-.991.513a4.094 4.094 0 01-.875.219c-.264.03-.46.046-.588.046h-3.814V42.924h3.035c.848 0 1.593.135 2.235.403s1.176.627 1.6 1.073.74.955.95 1.524c.21.57.315 1.156.315 1.758zm-4.867 4.115c1.112 0 1.914-.355 2.406-1.066s.738-1.741.738-3.09c0-.419-.05-.834-.15-1.244-.101-.41-.294-.781-.581-1.114s-.677-.602-1.169-.807-1.13-.308-1.914-.308h-.957v7.629h1.627zM36.266 44.168v3.172h4.211v1.121h-4.211V53h-1.668V42.924H40.9v1.244h-4.634z"/></g></svg><svg viewBox="0 0 53.943 53.943" id="phone_color" xmlns="http://www.w3.org/2000/svg"><path d="M52.48 41.376c-1.898-3.587-8.899-7.69-8.899-7.69-1.584-.903-3.495-1.004-4.399.606 0 0-2.274 2.728-2.853 3.12-2.643 1.791-5.091 1.722-7.562-.75l-5.743-5.743-5.743-5.743c-2.472-2.472-2.541-4.919-.75-7.562.392-.579 3.12-2.853 3.12-2.853 1.609-.904 1.509-2.815.606-4.399 0 0-4.103-7.001-7.69-8.899a3.932 3.932 0 00-4.621.695L5.408 4.693c-8.045 8.045-4.084 17.129 3.961 25.174l7.353 7.353 7.353 7.353c8.045 8.045 17.129 12.007 25.174 3.961l2.537-2.537a3.934 3.934 0 00.694-4.621z" fill="#52c306"/><path d="M53.364 40.908c-2.008-3.796-8.981-7.912-9.287-8.092-.896-.51-1.831-.78-2.706-.78-1.301 0-2.366.596-3.011 1.68-1.02 1.22-2.286 2.646-2.592 2.867-2.376 1.612-4.237 1.429-6.294-.629L17.987 24.467c-2.044-2.045-2.232-3.928-.632-6.29.224-.31 1.65-1.575 2.871-2.597.778-.463 1.312-1.15 1.545-1.995.312-1.122.082-2.444-.652-3.731-.173-.296-4.29-7.27-8.085-9.277a4.947 4.947 0 00-2.306-.573 4.904 4.904 0 00-3.489 1.445L4.7 3.986C.686 7.999-.767 12.548.379 17.506c.956 4.132 3.742 8.529 8.282 13.068l14.705 14.705c5.746 5.746 11.224 8.66 16.282 8.66 3.721 0 7.188-1.581 10.306-4.698l2.537-2.537a4.907 4.907 0 00.873-5.796zm-2.286 4.382l-2.537 2.537c-2.729 2.729-5.72 4.112-8.891 4.112h-.001c-4.509 0-9.511-2.717-14.868-8.074L10.076 29.16c-4.271-4.271-6.878-8.344-7.748-12.105-.994-4.301.244-8.113 3.786-11.655l2.537-2.537a2.915 2.915 0 012.075-.859c.476 0 .949.118 1.371.341 3.294 1.743 7.256 8.454 7.29 8.511.449.787.62 1.608.457 2.196-.1.36-.323.633-.683.835l-.151.104c-.853.711-2.882 2.433-3.308 3.061-.612.904-1.018 1.793-1.23 2.666-.711-1.418-1.286-3.061-1.475-4.881-.057-.548-.546-.931-1.098-.892a1.002 1.002 0 00-.892 1.099c.722 6.953 6.129 11.479 6.359 11.668.025.021.056.029.082.047l10.611 10.61c.044.044.09.083.134.126.036.053.059.111.106.157.189.187 4.704 4.567 11.599 5.283a1.001 1.001 0 00.206-1.99c-2.112-.219-3.983-.838-5.543-1.556.762-.231 1.538-.614 2.328-1.149.628-.425 2.35-2.455 3.061-3.308l.104-.151c.281-.5.712-.744 1.317-.744.52 0 1.129.185 1.705.512 1.879 1.102 7.072 4.559 8.521 7.296a2.919 2.919 0 01-.519 3.445z" fill="#388f04"/></svg><svg viewBox="0 0 291.364 291.364" id="skype_color" xmlns="http://www.w3.org/2000/svg"><path d="M282.966 176.612a136.24 136.24 0 003.204-29.405c0-75.661-62.197-137.011-138.941-137.011-8.093 0-16.032.692-23.752 2.003C111.061 4.479 96.367 0 80.618 0 36.101 0 .032 35.577.032 79.475c0 14.657 4.051 28.385 11.07 40.193a135.273 135.273 0 00-2.813 27.539c0 75.688 62.197 134.753 138.932 134.753 8.694 0 17.197-.792 25.436-2.294 11.352 6.008 24.316 11.698 38.099 11.698 44.508 0 80.577-35.568 80.577-79.466a78.266 78.266 0 00-8.367-35.286z" fill="#00aff0"/><path d="M210.6 203.131c-5.362 7.62-13.21 13.61-23.542 17.916-10.333 4.342-22.568 6.491-36.724 6.491-16.978 0-30.98-2.95-42.023-8.858-7.811-4.242-14.174-9.923-19.072-17.006-4.88-7.083-7.328-13.983-7.328-20.693 0-3.878 1.466-7.21 4.397-9.969 2.931-2.795 6.673-4.169 11.198-4.169 3.678 0 6.8 1.065 9.331 3.241 2.549 2.158 4.725 5.353 6.509 9.604 2.194 5.053 4.552 9.268 7.11 12.645 2.531 3.377 6.118 6.181 10.724 8.375 4.625 2.176 10.697 3.286 18.198 3.286 10.324 0 18.717-2.203 25.181-6.637 6.445-4.415 9.686-9.959 9.686-16.578 0-5.244-1.748-9.532-5.226-12.782-3.487-3.277-7.984-5.781-13.501-7.501-5.508-1.739-12.882-3.578-22.131-5.517-12.354-2.649-22.705-5.781-31.025-9.331-8.33-3.578-14.957-8.43-19.837-14.575-4.898-6.172-7.338-13.819-7.338-22.95 0-8.721 2.576-16.45 7.747-23.214 5.162-6.773 12.618-11.971 22.413-15.613 9.777-3.641 21.285-5.453 34.494-5.453 10.56 0 19.7 1.211 27.411 3.605 7.711 2.422 14.093 5.626 19.172 9.623 5.089 3.997 8.812 8.184 11.152 12.581 2.349 4.37 3.523 8.685 3.523 12.836 0 3.814-1.457 7.274-4.388 10.324-2.931 3.059-6.591 4.597-10.97 4.597-3.997 0-7.028-.929-9.104-2.758-2.076-1.839-4.324-4.843-6.737-9.022-3.141-5.972-6.882-10.633-11.27-13.974-4.388-3.35-11.416-5.025-21.121-5.025-8.985 0-16.25 1.803-21.767 5.453-5.517 3.623-8.284 8.011-8.284 13.118 0 3.15.956 5.899 2.822 8.202 1.866 2.321 4.452 4.279 7.756 5.927a55.661 55.661 0 009.959 3.905c3.359.938 8.922 2.294 16.678 4.097 9.686 2.085 18.471 4.397 26.337 6.91 7.857 2.522 14.557 5.59 20.074 9.167 5.508 3.605 9.823 8.175 12.909 13.692 3.086 5.499 4.643 12.244 4.643 20.238.003 9.56-2.691 18.163-8.036 25.792z" fill="#fff"/></svg><svg preserveAspectRatio="xMidYMid" viewBox="0 0 256 256" id="telegram_color" xmlns="http://www.w3.org/2000/svg"><path d="M128 0C57.307 0 0 57.307 0 128s57.307 128 128 128 128-57.307 128-128S198.693 0 128 0z" fill="#40B3E0"/><path d="M190.283 73.63L167.42 188.899s-3.197 7.994-11.99 4.157l-52.758-40.448-19.184-9.272-32.294-10.872s-4.956-1.758-5.436-5.595c-.48-3.837 5.596-5.915 5.596-5.915l128.376-50.36s10.552-4.636 10.552 3.038" fill="#FFF"/><path d="M98.618 187.603s-1.54-.144-3.46-6.22c-1.917-6.075-11.67-38.049-11.67-38.049l77.538-49.24s4.477-2.718 4.317 0c0 0 .799.48-1.6 2.718-2.397 2.239-60.91 54.836-60.91 54.836" fill="#D2E5F1"/><path d="M122.901 168.115l-20.867 19.026s-1.632 1.238-3.416.462l3.996-35.34" fill="#B5CFE4"/></svg><svg viewBox="0 0 97.75 97.75" id="vk_color" xmlns="http://www.w3.org/2000/svg"><path d="M48.875 0C21.883 0 0 21.882 0 48.875S21.883 97.75 48.875 97.75 97.75 75.868 97.75 48.875 75.867 0 48.875 0zm24.792 54.161c2.278 2.225 4.688 4.319 6.733 6.774.906 1.086 1.76 2.209 2.41 3.472.928 1.801.09 3.776-1.522 3.883l-10.013-.002c-2.586.214-4.644-.829-6.379-2.597-1.385-1.409-2.67-2.914-4.004-4.371-.545-.598-1.119-1.161-1.803-1.604-1.365-.888-2.551-.616-3.333.81-.797 1.451-.979 3.059-1.055 4.674-.109 2.361-.821 2.978-3.19 3.089-5.062.237-9.865-.531-14.329-3.083-3.938-2.251-6.986-5.428-9.642-9.025-5.172-7.012-9.133-14.708-12.692-22.625-.801-1.783-.215-2.737 1.752-2.774 3.268-.063 6.536-.055 9.804-.003 1.33.021 2.21.782 2.721 2.037 1.766 4.345 3.931 8.479 6.644 12.313.723 1.021 1.461 2.039 2.512 2.76 1.16.796 2.044.533 2.591-.762.35-.823.501-1.703.577-2.585.26-3.021.291-6.041-.159-9.05-.28-1.883-1.339-3.099-3.216-3.455-.956-.181-.816-.535-.351-1.081.807-.944 1.563-1.528 3.074-1.528l11.313-.002c1.783.35 2.183 1.15 2.425 2.946l.01 12.572c-.021.695.349 2.755 1.597 3.21 1 .33 1.66-.472 2.258-1.105 2.713-2.879 4.646-6.277 6.377-9.794.764-1.551 1.423-3.156 2.063-4.764.476-1.189 1.216-1.774 2.558-1.754l10.894.013c.321 0 .647.003.965.058 1.836.314 2.339 1.104 1.771 2.895-.894 2.814-2.631 5.158-4.329 7.508-1.82 2.516-3.761 4.944-5.563 7.471-1.656 2.31-1.525 3.473.531 5.479z"/></svg><svg viewBox="-1.5 0 259 259" preserveAspectRatio="xMidYMid" id="whatsapp_color" xmlns="http://www.w3.org/2000/svg"><path d="M67.663 221.823l4.185 2.093c17.44 10.463 36.971 15.346 56.503 15.346 61.385 0 111.609-50.224 111.609-111.609 0-29.297-11.859-57.897-32.785-78.824-20.927-20.927-48.83-32.785-78.824-32.785-61.385 0-111.61 50.224-110.912 112.307 0 20.926 6.278 41.156 16.741 58.594l2.79 4.186-11.16 41.156 41.853-10.464z" fill="#00E676"/><path d="M219.033 37.668C195.316 13.254 162.531 0 129.048 0 57.898 0 .698 57.897 1.395 128.35c0 22.322 6.278 43.947 16.742 63.478L0 258.096l67.663-17.439c18.834 10.464 39.76 15.347 60.688 15.347 70.453 0 127.653-57.898 127.653-128.35 0-34.181-13.254-66.269-36.97-89.986zM129.048 234.38c-18.834 0-37.668-4.882-53.712-14.648l-4.185-2.093-40.458 10.463 10.463-39.76-2.79-4.186C7.673 134.63 22.322 69.058 72.546 38.365c50.224-30.692 115.097-16.043 145.79 34.181 30.692 50.224 16.043 115.097-34.18 145.79-16.045 10.463-35.576 16.043-55.108 16.043zm61.385-77.428l-7.673-3.488s-11.16-4.883-18.136-8.371c-.698 0-1.395-.698-2.093-.698-2.093 0-3.488.698-4.883 1.396 0 0-.697.697-10.463 11.858-.698 1.395-2.093 2.093-3.488 2.093h-.698c-.697 0-2.092-.698-2.79-1.395l-3.488-1.395c-7.673-3.488-14.648-7.674-20.229-13.254-1.395-1.395-3.488-2.79-4.883-4.185-4.883-4.883-9.766-10.464-13.253-16.742l-.698-1.395c-.697-.698-.697-1.395-1.395-2.79 0-1.395 0-2.79.698-3.488 0 0 2.79-3.488 4.882-5.58 1.396-1.396 2.093-3.488 3.488-4.883 1.395-2.093 2.093-4.883 1.395-6.976-.697-3.488-9.068-22.322-11.16-26.507-1.396-2.093-2.79-2.79-4.883-3.488H83.01c-1.396 0-2.79.698-4.186.698l-.698.697c-1.395.698-2.79 2.093-4.185 2.79-1.395 1.396-2.093 2.79-3.488 4.186-4.883 6.278-7.673 13.951-7.673 21.624 0 5.58 1.395 11.161 3.488 16.044l.698 2.093c6.278 13.253 14.648 25.112 25.81 35.575l2.79 2.79c2.092 2.093 4.185 3.488 5.58 5.58 14.649 12.557 31.39 21.625 50.224 26.508 2.093.697 4.883.697 6.976 1.395h6.975c3.488 0 7.673-1.395 10.464-2.79 2.092-1.395 3.487-1.395 4.882-2.79l1.396-1.396c1.395-1.395 2.79-2.092 4.185-3.487 1.395-1.395 2.79-2.79 3.488-4.186 1.395-2.79 2.092-6.278 2.79-9.765v-4.883s-.698-.698-2.093-1.395z" fill="#FFF"/></svg></svg>